# xmcd CD database file
#
# Track frame offsets:
#	150
#	21350
#	63057
#	96870
#	147517
#	179532
#	217472
#
# Disc length: 3153 seconds
#
# Revision: 0
# Processed by: cddbd v1.5.1PL0 Copyright (c) Steve Scherf et al.
# Submitted via: CDex 1.51
#
DISCID=6c0c4f07
DTITLE=Various Artist - JAZZ CRUISE 03　スーズ・ザ・ナイト
DYEAR=2001
DGENRE=Jazz
TTITLE0=柳よ泣いておくれ(ケニー・ドリュー)  
TTITLE1=アローン・トゥゲザー(ジーン・ディノヴィ)  
TTITLE2=ファイブ・スポット・アフターダーク(ベニー・ゴルソン＝カーティス・フラー・クインテット＋２)
TTITLE3=アロング・ケイム・ペティ(アート・ブレイキー＆ジャズ・メッセンジャーズ)
TTITLE4=マイ・ファニー・ヴァレンタイン(レッド・ガーランド・トリオ)
TTITLE5=Ｃ．Ｃ．ライダー(レイ・ブライアント・トリオ)
TTITLE6=エンドレス・ラヴ(ヨーロピアン・ジャズ・トリオ)
EXTD=YEAR: 2001
EXTT0=
EXTT1=
EXTT2=
EXTT3=
EXTT4=
EXTT5=
EXTT6=
PLAYORDER=
